<?xml version="1.0" encoding="utf-8"?>

<!DOCTYPE svg PUBLIC "-//W3C//DTD SVG 1.1//EN" "http://www.w3.org/Graphics/SVG/1.1/DTD/svg11.dtd">
<!-- Uploaded to: SVG Repo, www.svgrepo.com, Generator: SVG Repo Mixer Tools -->
<svg version="1.1" id="Capa_1" xmlns="http://www.w3.org/2000/svg" xmlns:xlink="http://www.w3.org/1999/xlink" 
	 width="80px" height="80px" viewBox="0 0 32 32" enable-background="new 0 0 32 32" xml:space="preserve">
<g>
	<path fill="#FF6B43" d="M28.682,7.422c-1.757-1.758-4.605-1.758-6.363,0L11.006,18.732l-0.158,0.127
		c-1.172,1.173-1.172,3.072,0,4.244c1.171,1.17,3.071,1.17,4.242,0l0.014-0.019l0.018,0.019l10.732-10.731l-0.707-0.708
		l-9.194,9.193l0.001-0.032l-1.571,1.571c-0.781,0.78-2.047,0.779-2.828,0c-0.781-0.781-0.781-2.049,0-2.83l0.016-0.016l0.016,0.016
		L23.025,8.129c1.365-1.366,3.582-1.367,4.949,0c1.366,1.367,1.365,3.583,0,4.95L14.6,26.453l-0.072,0.072
		c-1.952,1.951-5.118,1.951-7.071,0c-1.953-1.952-1.953-5.118,0-7.071L20.196,6.715l-0.707-0.707L6.396,19.102l0.036,0.035
		c-1.993,2.357-1.904,5.874,0.318,8.096c2.222,2.223,5.739,2.311,8.096,0.318l0.036,0.035l13.8-13.8
		C30.439,12.028,30.439,9.18,28.682,7.422z"/>
</g>
<g>
	<path fill="#2D2220" d="M26.684,6.422c-1.757-1.758-4.605-1.758-6.363,0L9.008,17.732L8.85,17.859
		c-1.172,1.173-1.172,3.072,0,4.244c1.171,1.17,3.071,1.17,4.242,0l0.014-0.019l0.017,0.019l10.732-10.731l-0.707-0.708
		l-9.194,9.193l0.001-0.032l-1.571,1.571c-0.781,0.78-2.047,0.779-2.828,0c-0.781-0.781-0.781-2.049,0-2.83l0.016-0.016l0.016,0.016
		L21.027,7.129c1.365-1.366,3.582-1.367,4.949,0c1.366,1.367,1.365,3.583,0,4.95L12.602,25.453l-0.072,0.072
		c-1.952,1.951-5.118,1.951-7.071,0c-1.953-1.952-1.953-5.118,0-7.071L18.198,5.715l-0.707-0.707L4.398,18.102l0.036,0.035
		c-1.993,2.357-1.904,5.874,0.318,8.096c2.222,2.223,5.739,2.311,8.096,0.318l0.036,0.035l13.8-13.8
		C28.441,11.028,28.441,8.18,26.684,6.422z"/>
</g>
</svg>