<?xml version="1.0" standalone="no"?>
<svg xmlns:xlink="http://www.w3.org/1999/xlink" id="wave" style="transform:rotate(0deg); transition: 0.3s" viewBox="0 0 1440 290" version="1.1" xmlns="http://www.w3.org/2000/svg"><defs><linearGradient id="sw-gradient-0" x1="0" x2="0" y1="1" y2="0"><stop stop-color="rgba(243, 106, 62, 1)" offset="0%" data-darkreader-inline-stopcolor="" style="--darkreader-inline-stopcolor:#a4300a;"/><stop stop-color="rgba(255, 179, 11, 1)" offset="100%" data-darkreader-inline-stopcolor="" style="--darkreader-inline-stopcolor:#946600;"/></linearGradient></defs><path style="transform:translate(0, 0px); opacity:1" fill="url(#sw-gradient-0)" d="M0,87L16,106.3C32,126,64,164,96,159.5C128,155,160,106,192,96.7C224,87,256,116,288,149.8C320,184,352,222,384,227.2C416,232,448,203,480,178.8C512,155,544,135,576,149.8C608,164,640,213,672,227.2C704,242,736,222,768,183.7C800,145,832,87,864,82.2C896,77,928,126,960,149.8C992,174,1024,174,1056,164.3C1088,155,1120,135,1152,149.8C1184,164,1216,213,1248,203C1280,193,1312,126,1344,91.8C1376,58,1408,58,1440,91.8C1472,126,1504,193,1536,193.3C1568,193,1600,126,1632,96.7C1664,68,1696,77,1728,67.7C1760,58,1792,29,1824,43.5C1856,58,1888,116,1920,154.7C1952,193,1984,213,2016,193.3C2048,174,2080,116,2112,111.2C2144,106,2176,155,2208,159.5C2240,164,2272,126,2288,106.3L2304,87L2304,290L2288,290C2272,290,2240,290,2208,290C2176,290,2144,290,2112,290C2080,290,2048,290,2016,290C1984,290,1952,290,1920,290C1888,290,1856,290,1824,290C1792,290,1760,290,1728,290C1696,290,1664,290,1632,290C1600,290,1568,290,1536,290C1504,290,1472,290,1440,290C1408,290,1376,290,1344,290C1312,290,1280,290,1248,290C1216,290,1184,290,1152,290C1120,290,1088,290,1056,290C1024,290,992,290,960,290C928,290,896,290,864,290C832,290,800,290,768,290C736,290,704,290,672,290C640,290,608,290,576,290C544,290,512,290,480,290C448,290,416,290,384,290C352,290,320,290,288,290C256,290,224,290,192,290C160,290,128,290,96,290C64,290,32,290,16,290L0,290Z"/></svg>